<svg xmlns="http://www.w3.org/2000/svg" viewBox="0 0 1024 576" font-family="JetBrains Mono, ui-monospace, monospace">
  <defs>
    <pattern id="grid-2026-07-20-anthropic-ipo" width="48" height="48" patternUnits="userSpaceOnUse" patternTransform="translate(8 8)">
      <path d="M 48 0 L 0 0 0 48" fill="none" stroke="#30363d" stroke-width="0.6" opacity="0.35"/>
    </pattern>
    <radialGradient id="vignette-2026-07-20-anthropic-ipo" cx="50%" cy="0%" r="100%">
      <stop offset="0%" stop-color="#161b22" stop-opacity="0.7"/>
      <stop offset="100%" stop-color="#0d1117" stop-opacity="0"/>
    </radialGradient>
    <filter id="glow-2026-07-20-anthropic-ipo" x="-20%" y="-20%" width="140%" height="140%">
      <feGaussianBlur stdDeviation="6" result="blur"/>
      <feMerge>
        <feMergeNode in="blur"/>
        <feMergeNode in="SourceGraphic"/>
      </feMerge>
    </filter>
  </defs>

  <rect width="1024" height="576" fill="#0d1117"/>
  <rect width="1024" height="576" fill="url(#grid-2026-07-20-anthropic-ipo)"/>
  <rect width="1024" height="576" fill="url(#vignette-2026-07-20-anthropic-ipo)"/>

  <!-- Watermark keyword -->
  <text x="512" y="370" text-anchor="middle"
        font-size="324" font-weight="800"
        fill="#f0b429" opacity="0.10"
        letter-spacing="-0.04em">S-1</text>

  <!-- Bracket frame -->
  <g stroke="#f0b429" stroke-width="2" fill="none">
    <path d="M 32 32 L 32 96 M 32 32 L 96 32"/>
    <path d="M 992 32 L 992 96 M 992 32 L 928 32"/>
    <path d="M 32 544 L 32 480 M 32 544 L 96 544"/>
    <path d="M 992 544 L 992 480 M 992 544 L 928 544"/>
  </g>

  <!-- Top metadata bar -->
  <g font-size="14" letter-spacing="0.12em" fill="#768390" font-weight="500">
    <text x="56" y="64">&gt;_ ROBO_AI_DIGEST</text>
    <text x="968" y="64" text-anchor="end">2026.07.20</text>
  </g>

  <!-- Title block -->
  <g fill="#e6edf3" font-weight="700">
    <text x="56" y="220" font-size="40" letter-spacing="-0.02em">Anthropic Files Confidential S-1 for</text>
    <text x="56" y="270" font-size="40" letter-spacing="-0.02em">IPO in Landmark AI Secto...</text>
  </g>

  <!-- Category badge -->
  <g transform="translate(56 320)">
    <rect x="0" y="0" width="159" height="32"
          fill="#161b22" stroke="#f0b429" stroke-width="1" rx="2"/>
    <text x="77" y="21" text-anchor="middle"
          font-size="13" font-weight="700" letter-spacing="0.14em" fill="#f0b429">INDUSTRY NEWS</text>
  </g>

  <!-- Bottom-left tag with keyword -->
  <g transform="translate(56 504)" filter="url(#glow-2026-07-20-anthropic-ipo)">
    <text x="0" y="0" font-size="20" font-weight="700" fill="#f0b429" letter-spacing="0.06em">// S-1_</text>
  </g>

  <!-- Bottom-right signature line -->
  <g font-size="12" fill="#768390" letter-spacing="0.16em">
    <text x="968" y="528" text-anchor="end">SIGNAL OVER NOISE</text>
  </g>
</svg>
