<svg xmlns="http://www.w3.org/2000/svg" viewBox="0 0 320 80" fill="none">
  
  
  <g transform="translate(8, 12)">
    
    <rect x="2" y="6" width="52" height="44" rx="3" stroke="#e6edf3" stroke-width="2" fill="#0d1117"></rect>
    
    <line x1="28" y1="0" x2="28" y2="6" stroke="#e6edf3" stroke-width="2"></line>
    <circle cx="28" cy="-1" r="2" fill="#4ade80"></circle>
    
    <rect x="8" y="14" width="40" height="14" fill="#07090c" stroke="#30363d" stroke-width="1"></rect>
    
    <rect x="14" y="18" width="6" height="6" fill="#4ade80"></rect>
    <rect x="36" y="18" width="6" height="6" fill="#4ade80"></rect>
    
    <line x1="12" y1="36" x2="44" y2="36" stroke="#4ade80" stroke-width="1.5" stroke-dasharray="2 2"></line>
    <line x1="12" y1="40" x2="44" y2="40" stroke="#30363d" stroke-width="1"></line>
    <line x1="12" y1="44" x2="44" y2="44" stroke="#30363d" stroke-width="1"></line>
    
    <circle cx="6" cy="10" r="1" fill="#768390"></circle>
    <circle cx="50" cy="10" r="1" fill="#768390"></circle>
    <circle cx="6" cy="46" r="1" fill="#768390"></circle>
    <circle cx="50" cy="46" r="1" fill="#768390"></circle>
  </g>

  
  <g transform="translate(76, 0)" font-family="&#39;JetBrains Mono&#39;, ui-monospace, monospace">
    <text x="0" y="34" font-size="22" font-weight="700" fill="#e6edf3" letter-spacing="-0.5">ROBO·AI</text>
    <text x="0" y="58" font-size="22" font-weight="700" fill="#4ade80" letter-spacing="-0.5">DIGEST<tspan fill="#4ade80">_</tspan></text>
  </g>

  
  <g stroke="#30363d" stroke-width="1" fill="none">
    <path d="M 240 14 L 248 14 L 248 22"></path>
    <path d="M 312 14 L 304 14 L 304 22"></path>
    <path d="M 240 66 L 248 66 L 248 58"></path>
    <path d="M 312 66 L 304 66 L 304 58"></path>
  </g>
  <text x="276" y="44" text-anchor="middle" font-family="&#39;JetBrains Mono&#39;, monospace" font-size="9" font-weight="500" fill="#768390" letter-spacing="2">v.2026</text>
</svg>